# xmcd
#
# Track frame offsets:
#	150
#	15300
#	32175
#
# Disc length: 674 seconds
#
# Revision: 2
# Processed by: cddbd v1.5.2PL0 Copyright (c) Steve Scherf et al.
# Submitted via: audiograbber 1.83.01
#
DISCID=1702a003
DTITLE=Nena - Ohne Ende [CDM)
DYEAR=1993
DGENRE=Pop
TTITLE0=Ohne Ende
TTITLE1=Ich kann nich' mehr
TTITLE2=Weit über den Ozean
EXTD=
EXTT0=
EXTT1=
EXTT2=
PLAYORDER=
